<svg xmlns="http://www.w3.org/2000/svg" id="canvas" viewBox="256.177 297.965 1101.425 202.925">
    <path
        d="M 313.15,335.15 C 312.25 335.36, 311.80 335.70, 310.59 337.20 C 309.38 338.70, 308.88 339.55, 307.10 342.65 C 305.32 345.74, 304.40 348.04, 301.70 352.68 C 298.99 357.31, 297.21 360.14, 293.58 365.83 C 289.94 371.52, 287.58 374.84, 283.52 381.13 C 279.46 387.41, 277.00 390.96, 273.28 397.26 C 269.56 403.57, 267.56 406.96, 264.92 412.63 C 262.28 418.31, 261.06 421.01, 260.08 425.63 C 259.09 430.26, 258.72 432.54, 259.98 435.75 C 261.24 438.95, 262.91 440.42, 266.36 441.66 C 269.81 442.90, 272.18 442.61, 277.23 441.93 C 282.29 441.26, 285.46 440.28, 291.63 438.27 C 297.80 436.26, 301.45 434.64, 308.09 431.88 C 314.72 429.12, 318.51 427.35, 324.80 424.46 C 331.09 421.57, 334.48 419.89, 339.55 417.43 C 344.63 414.98, 347.36 414.06, 350.17 412.18 C 352.98 410.29, 353.05 409.22, 353.59 408.00 C 354.14 406.78, 353.15 406.43, 352.89 406.08 C 352.62 405.72, 352.42 406.07, 352.25 406.21 C 352.09 406.35, 352.91 406.27, 352.06 406.77 C 351.22 407.28, 350.83 407.16, 348.04 408.75 C 345.26 410.33, 343.02 412.04, 338.15 414.69 C 333.27 417.34, 329.88 419.08, 323.66 422.01 C 317.44 424.94, 313.64 426.68, 307.04 429.33 C 300.45 431.98, 296.75 433.47, 290.69 435.27 C 284.64 437.08, 281.41 437.80, 276.78 438.34 C 272.16 438.88, 270.25 438.75, 267.58 437.97 C 264.91 437.18, 264.30 436.76, 263.43 434.42 C 262.56 432.08, 262.41 430.40, 263.20 426.27 C 264.00 422.14, 264.95 419.31, 267.40 413.76 C 269.85 408.21, 271.80 404.79, 275.45 398.54 C 279.11 392.30, 281.56 388.76, 285.68 382.54 C 289.80 376.33, 292.21 373.04, 296.06 367.48 C 299.91 361.93, 301.82 359.18, 304.94 354.76 C 308.06 350.35, 309.69 348.46, 311.66 345.43 C 313.62 342.39, 314.09 341.42, 314.78 339.57 C 315.46 337.72, 315.41 337.06, 315.09 336.18 C 314.76 335.29, 314.05 334.95, 313.15 335.15"
        style="stroke: black; fill: black;" />
    <path
        d="M 274.27,394.60 C 275.10 395.07, 275.75 395.29, 277.72 394.91 C 279.69 394.52, 280.86 394.05, 284.14 392.69 C 287.42 391.33, 289.51 390.09, 294.11 388.10 C 298.72 386.10, 301.69 384.95, 307.16 382.71 C 312.62 380.48, 315.71 379.19, 321.45 376.95 C 327.18 374.71, 330.26 373.53, 335.84 371.52 C 341.42 369.50, 344.24 368.61, 349.35 366.87 C 354.46 365.14, 356.97 364.43, 361.40 362.84 C 365.83 361.25, 367.85 360.45, 371.52 358.92 C 375.19 357.39, 376.73 356.77, 379.75 355.20 C 382.78 353.64, 384.08 352.88, 386.66 351.07 C 389.24 349.26, 390.38 348.32, 392.66 346.16 C 394.94 343.99, 395.92 342.79, 398.07 340.24 C 400.21 337.70, 401.29 336.30, 403.41 333.42 C 405.52 330.55, 406.64 328.90, 408.63 325.85 C 410.62 322.81, 411.65 321.15, 413.38 318.20 C 415.11 315.25, 416.33 313.81, 417.29 311.11 C 418.25 308.41, 418.57 306.68, 418.17 304.69 C 417.77 302.70, 416.93 301.56, 415.29 301.16 C 413.64 300.76, 412.15 300.84, 409.96 302.71 C 407.77 304.57, 406.98 306.46, 404.33 310.48 C 401.67 314.49, 399.99 317.14, 396.69 322.80 C 393.38 328.45, 391.40 331.93, 387.81 338.74 C 384.22 345.55, 382.20 349.45, 378.74 356.86 C 375.28 364.26, 373.41 368.37, 370.52 375.76 C 367.63 383.16, 366.22 387.10, 364.28 393.83 C 362.34 400.55, 361.59 403.88, 360.82 409.40 C 360.04 414.92, 359.77 417.38, 360.41 421.43 C 361.04 425.47, 361.71 427.38, 363.98 429.62 C 366.26 431.86, 368.25 432.53, 371.78 432.61 C 375.31 432.70, 377.36 431.89, 381.62 430.04 C 385.87 428.18, 388.22 426.62, 393.06 423.33 C 397.90 420.05, 400.69 417.69, 405.82 413.61 C 410.95 409.53, 413.82 407.02, 418.69 402.93 C 423.56 398.83, 426.13 396.52, 430.18 393.15 C 434.23 389.79, 436.58 388.23, 438.95 386.10 C 441.32 383.97, 441.81 382.98, 442.02 382.50 C 442.23 382.02, 441.16 382.20, 440.00 383.71 C 438.85 385.23, 437.82 386.89, 436.23 390.07 C 434.63 393.25, 433.61 395.77, 432.02 399.61 C 430.42 403.45, 429.31 405.70, 428.24 409.27 C 427.16 412.83, 426.52 414.65, 426.64 417.43 C 426.77 420.22, 427.29 421.56, 428.85 423.19 C 430.41 424.81, 431.74 425.58, 434.45 425.56 C 437.15 425.54, 438.89 424.85, 442.38 423.09 C 445.88 421.33, 447.73 419.83, 451.92 416.76 C 456.10 413.69, 458.50 411.81, 463.29 407.73 C 468.09 403.65, 470.78 401.22, 475.91 396.35 C 481.04 391.49, 483.80 388.68, 488.93 383.40 C 494.07 378.12, 496.79 375.20, 501.59 369.96 C 506.39 364.72, 508.75 361.96, 512.93 357.22 C 517.10 352.48, 519.09 350.12, 522.48 346.28 C 525.87 342.45, 527.54 340.86, 529.90 338.05 C 532.26 335.24, 533.42 333.89, 534.28 332.21 C 535.14 330.53, 534.90 329.61, 534.18 329.65 C 533.47 329.69, 532.26 330.02, 530.70 332.41 C 529.13 334.81, 528.59 337.10, 526.35 341.61 C 524.11 346.12, 522.51 349.21, 519.50 354.97 C 516.49 360.72, 514.58 364.24, 511.30 370.39 C 508.03 376.53, 506.19 379.86, 503.13 385.71 C 500.07 391.56, 498.53 394.59, 496.00 399.63 C 493.46 404.68, 492.29 407.07, 490.45 410.92 C 488.61 414.76, 487.56 416.27, 486.79 418.84 C 486.02 421.41, 486.16 422.43, 486.61 423.76 C 487.06 425.09, 487.77 425.41, 489.05 425.50 C 490.33 425.58, 491.64 425.24, 493.01 424.20 C 494.38 423.16, 495.38 422.03, 495.91 420.29 C 496.43 418.55, 496.27 417.05, 495.65 415.48 C 495.03 413.91, 494.11 412.97, 492.80 412.45 C 491.50 411.92, 490.27 412.05, 489.10 412.86 C 487.94 413.68, 487.17 414.77, 486.98 416.53 C 486.79 418.30, 487.06 419.73, 488.15 421.68 C 489.24 423.62, 490.24 424.71, 492.44 426.27 C 494.63 427.82, 495.99 428.69, 499.12 429.43 C 502.25 430.16, 504.17 430.13, 508.08 429.93 C 511.98 429.74, 514.17 429.46, 518.64 428.46 C 523.12 427.45, 525.67 426.65, 530.45 424.89 C 535.24 423.13, 537.86 422.00, 542.57 419.65 C 547.29 417.29, 549.77 415.85, 554.03 413.13 C 558.30 410.42, 560.43 408.89, 563.90 406.06 C 567.36 403.23, 569.07 401.78, 571.37 398.99 C 573.66 396.19, 574.67 394.65, 575.37 392.08 C 576.07 389.52, 575.85 388.09, 574.86 386.17 C 573.87 384.24, 572.77 383.21, 570.43 382.46 C 568.08 381.70, 566.20 381.48, 563.13 382.39 C 560.06 383.30, 558.34 384.65, 555.09 386.99 C 551.84 389.33, 549.96 390.93, 546.88 394.09 C 543.81 397.26, 542.04 399.14, 539.70 402.81 C 537.36 406.48, 536.15 408.65, 535.18 412.45 C 534.21 416.25, 533.94 418.44, 534.86 421.79 C 535.78 425.15, 536.97 426.91, 539.80 429.24 C 542.62 431.56, 544.65 432.38, 548.99 433.42 C 553.34 434.47, 556.04 434.61, 561.54 434.46 C 567.04 434.31, 570.83 433.63, 576.48 432.69 C 582.14 431.74, 585.35 430.96, 589.81 429.74 C 594.28 428.52, 597.14 427.65, 598.81 426.58 C 600.49 425.52, 600.15 424.43, 598.19 424.40 C 596.23 424.38, 593.47 425.49, 589.01 426.44 C 584.55 427.39, 581.42 428.29, 575.91 429.15 C 570.40 430.02, 566.65 430.70, 561.47 430.76 C 556.28 430.82, 553.75 430.46, 549.99 429.46 C 546.23 428.46, 544.80 427.54, 542.67 425.76 C 540.54 423.99, 539.96 423.03, 539.34 420.60 C 538.71 418.16, 538.73 416.66, 539.55 413.59 C 540.37 410.51, 541.30 408.45, 543.42 405.21 C 545.54 401.97, 547.22 400.15, 550.14 397.40 C 553.06 394.65, 555.04 393.24, 558.04 391.45 C 561.04 389.67, 562.81 389.33, 565.14 388.45 C 567.46 387.57, 568.36 387.22, 569.67 387.07 C 570.98 386.91, 571.42 386.99, 571.70 387.69 C 571.98 388.40, 571.85 388.89, 571.07 390.59 C 570.29 392.28, 569.73 393.64, 567.80 396.15 C 565.87 398.66, 564.54 400.33, 561.40 403.13 C 558.27 405.93, 556.19 407.49, 552.11 410.17 C 548.04 412.84, 545.60 414.26, 541.02 416.49 C 536.44 418.73, 533.85 419.80, 529.21 421.36 C 524.57 422.91, 522.05 423.58, 517.82 424.28 C 513.60 424.98, 511.49 425.05, 508.08 424.85 C 504.67 424.65, 503.16 424.06, 500.78 423.30 C 498.39 422.54, 497.51 422.06, 496.16 421.07 C 494.82 420.08, 494.60 419.34, 494.05 418.36 C 493.50 417.39, 493.74 416.92, 493.42 416.19 C 493.10 415.47, 492.94 415.12, 492.45 414.75 C 491.95 414.38, 491.58 414.20, 490.95 414.34 C 490.31 414.48, 489.91 414.74, 489.28 415.45 C 488.65 416.16, 488.12 416.77, 487.80 417.89 C 487.48 419.00, 487.61 419.87, 487.67 421.03 C 487.74 422.20, 487.82 423.11, 488.13 423.70 C 488.43 424.29, 488.59 424.64, 489.20 423.97 C 489.81 423.30, 490.27 422.67, 491.18 420.35 C 492.09 418.03, 492.27 416.24, 493.77 412.35 C 495.26 408.46, 496.30 406.00, 498.66 400.92 C 501.01 395.84, 502.52 392.80, 505.54 386.96 C 508.56 381.12, 510.39 377.80, 513.76 371.72 C 517.12 365.64, 519.11 362.16, 522.38 356.55 C 525.64 350.95, 527.48 348.02, 530.10 343.67 C 532.73 339.33, 534.47 337.64, 535.51 334.82 C 536.55 332.00, 536.10 330.58, 535.31 329.57 C 534.51 328.56, 533.26 328.58, 531.55 329.76 C 529.84 330.95, 529.04 332.59, 526.76 335.50 C 524.47 338.41, 523.28 340.30, 520.11 344.30 C 516.94 348.29, 514.98 350.68, 510.91 355.48 C 506.84 360.28, 504.51 363.05, 499.76 368.29 C 495.01 373.53, 492.29 376.44, 487.15 381.67 C 482.02 386.89, 479.25 389.67, 474.09 394.40 C 468.92 399.13, 466.21 401.51, 461.33 405.33 C 456.46 409.16, 453.95 410.89, 449.72 413.53 C 445.49 416.17, 443.35 417.09, 440.19 418.54 C 437.03 419.98, 435.68 420.26, 433.91 420.74 C 432.14 421.22, 431.80 421.55, 431.33 420.94 C 430.85 420.33, 431.15 419.71, 431.53 417.70 C 431.91 415.68, 432.11 414.05, 433.22 410.88 C 434.33 407.70, 435.39 405.49, 437.06 401.81 C 438.74 398.14, 440.23 395.87, 441.60 392.51 C 442.97 389.14, 443.82 387.28, 443.90 384.97 C 443.97 382.65, 443.47 381.38, 441.97 380.95 C 440.47 380.52, 439.17 380.90, 436.38 382.84 C 433.59 384.78, 431.93 387.10, 428.02 390.66 C 424.10 394.23, 421.60 396.57, 416.79 400.68 C 411.98 404.80, 409.08 407.28, 403.95 411.23 C 398.83 415.19, 395.95 417.44, 391.18 420.46 C 386.40 423.49, 383.95 424.79, 380.07 426.34 C 376.19 427.90, 374.45 428.16, 371.78 428.25 C 369.11 428.33, 368.31 428.25, 366.72 426.78 C 365.13 425.30, 364.45 424.26, 363.83 420.85 C 363.21 417.45, 363.07 415.02, 363.63 409.75 C 364.18 404.47, 364.81 401.11, 366.62 394.48 C 368.42 387.85, 369.79 383.91, 372.63 376.58 C 375.46 369.25, 377.32 365.16, 380.81 357.83 C 384.30 350.51, 386.34 346.63, 390.06 339.96 C 393.78 333.29, 395.84 329.86, 399.40 324.49 C 402.96 319.11, 404.95 316.64, 407.86 313.06 C 410.77 309.49, 412.47 308.55, 413.97 306.60 C 415.47 304.65, 415.35 303.78, 415.38 303.32 C 415.41 302.85, 414.85 303.15, 414.12 304.25 C 413.39 305.36, 412.79 306.56, 411.72 308.84 C 410.64 311.11, 410.20 312.79, 408.74 315.64 C 407.27 318.50, 406.28 320.16, 404.39 323.11 C 402.51 326.06, 401.38 327.64, 399.32 330.39 C 397.26 333.14, 396.15 334.46, 394.09 336.86 C 392.03 339.25, 391.09 340.34, 389.02 342.38 C 386.94 344.42, 385.99 345.28, 383.70 347.07 C 381.42 348.86, 380.34 349.66, 377.58 351.31 C 374.83 352.97, 373.41 353.70, 369.93 355.37 C 366.46 357.03, 364.51 357.93, 360.19 359.65 C 355.87 361.37, 353.41 362.14, 348.33 363.96 C 343.26 365.78, 340.43 366.72, 334.83 368.75 C 329.24 370.79, 326.15 371.97, 320.37 374.14 C 314.59 376.30, 311.50 377.56, 305.95 379.57 C 300.39 381.58, 297.38 382.59, 292.61 384.18 C 287.85 385.77, 285.45 386.30, 282.12 387.51 C 278.79 388.73, 277.67 389.25, 275.97 390.25 C 274.26 391.26, 273.91 391.68, 273.57 392.55 C 273.23 393.42, 273.44 394.13, 274.27 394.60"
        style="stroke: black; fill: black;" />
    <path
        d="M 737.38,329.47 C 736.52 329.76, 736.02 330.00, 735.02 331.70 C 734.01 333.40, 733.69 334.52, 732.35 337.97 C 731.01 341.42, 730.45 343.88, 728.31 348.95 C 726.16 354.02, 724.71 357.20, 721.63 363.33 C 718.55 369.45, 716.52 373.04, 712.92 379.57 C 709.31 386.09, 707.24 389.68, 703.62 395.96 C 700.00 402.24, 698.01 405.52, 694.82 410.97 C 691.63 416.41, 689.95 419.09, 687.68 423.16 C 685.40 427.24, 684.49 428.81, 683.44 431.35 C 682.38 433.88, 682.34 434.82, 682.40 435.85 C 682.45 436.89, 682.84 437.09, 683.71 436.51 C 684.57 435.94, 685.33 435.33, 686.71 432.97 C 688.09 430.61, 688.50 428.85, 690.59 424.71 C 692.68 420.58, 694.13 417.81, 697.17 412.30 C 700.21 406.80, 702.19 403.50, 705.78 397.20 C 709.38 390.90, 711.46 387.32, 715.15 380.82 C 718.84 374.32, 720.92 370.74, 724.23 364.69 C 727.55 358.64, 729.13 355.50, 731.72 350.57 C 734.31 345.63, 735.61 343.43, 737.17 340.01 C 738.73 336.58, 739.09 335.42, 739.52 333.46 C 739.95 331.51, 739.74 331.03, 739.31 330.24 C 738.88 329.44, 738.24 329.18, 737.38 329.47"
        style="stroke: black; fill: black;" />
    <path
        d="M 731.28,364.87 C 732.38 364.86, 733.16 363.94, 734.86 363.05 C 736.55 362.16, 737.45 361.72, 739.74 360.44 C 742.04 359.16, 743.37 358.03, 746.33 356.65 C 749.29 355.28, 750.98 354.78, 754.54 353.57 C 758.11 352.36, 760.10 351.83, 764.16 350.61 C 768.22 349.39, 770.53 348.75, 774.85 347.47 C 779.17 346.19, 781.47 345.55, 785.77 344.22 C 790.07 342.90, 792.27 342.22, 796.35 340.85 C 800.42 339.48, 802.52 338.73, 806.14 337.37 C 809.76 336.01, 811.49 335.37, 814.44 334.05 C 817.39 332.73, 818.86 332.20, 820.88 330.78 C 822.89 329.35, 823.92 328.24, 824.51 326.91 C 825.10 325.58, 824.78 324.51, 823.83 324.12 C 822.89 323.73, 821.70 323.51, 819.79 324.96 C 817.89 326.40, 817.02 327.95, 814.33 331.34 C 811.64 334.74, 809.90 337.13, 806.33 341.94 C 802.75 346.75, 800.53 349.67, 796.46 355.38 C 792.40 361.09, 790.10 364.38, 786.01 370.48 C 781.92 376.58, 779.76 379.91, 776.02 385.86 C 772.28 391.82, 770.43 394.95, 767.33 400.24 C 764.22 405.54, 762.71 408.04, 760.50 412.33 C 758.30 416.61, 757.17 418.63, 756.31 421.67 C 755.44 424.71, 755.87 426.30, 756.18 427.53 C 756.49 428.77, 757.14 428.78, 757.86 427.85 C 758.58 426.91, 758.66 425.66, 759.78 422.84 C 760.90 420.03, 761.47 418.02, 763.45 413.78 C 765.44 409.53, 766.76 406.91, 769.71 401.60 C 772.65 396.28, 774.48 393.14, 778.16 387.20 C 781.84 381.26, 784.00 377.94, 788.12 371.91 C 792.23 365.88, 794.55 362.60, 798.75 357.05 C 802.94 351.50, 805.23 348.64, 809.09 344.15 C 812.95 339.66, 815.10 337.66, 818.05 334.60 C 821.01 331.55, 822.54 330.80, 823.87 328.89 C 825.21 326.98, 825.06 326.03, 824.73 325.05 C 824.39 324.07, 823.58 323.79, 822.22 324.00 C 820.85 324.20, 819.91 324.97, 817.91 326.08 C 815.91 327.18, 814.90 328.09, 812.22 329.53 C 809.54 330.98, 807.94 331.82, 804.50 333.32 C 801.06 334.83, 799.00 335.62, 795.03 337.05 C 791.05 338.48, 788.87 339.16, 784.62 340.48 C 780.36 341.79, 778.06 342.40, 773.74 343.61 C 769.42 344.82, 767.12 345.44, 763.01 346.51 C 758.89 347.59, 756.93 348.03, 753.18 349.00 C 749.43 349.97, 747.61 350.27, 744.26 351.38 C 740.90 352.50, 738.99 353.08, 736.41 354.57 C 733.82 356.07, 732.76 357.15, 731.35 358.85 C 729.94 360.56, 729.37 361.91, 729.35 363.11 C 729.34 364.31, 730.18 364.89, 731.28 364.87"
        style="stroke: black; fill: black;" />
    <path
        d="M 819.77,386.63 C 818.90 386.91, 818.61 387.24, 817.49 388.71 C 816.36 390.17, 815.63 391.21, 814.15 393.95 C 812.67 396.69, 811.91 398.84, 810.10 402.40 C 808.30 405.96, 806.93 408.23, 805.13 411.76 C 803.33 415.28, 802.12 417.12, 801.10 420.03 C 800.08 422.93, 800.08 424.38, 800.04 426.30 C 800.00 428.23, 800.45 428.96, 800.93 429.65 C 801.40 430.34, 801.87 430.25, 802.43 429.75 C 802.98 429.25, 802.94 428.69, 803.71 427.16 C 804.48 425.63, 805.09 424.72, 806.29 422.10 C 807.48 419.49, 807.97 417.49, 809.70 414.08 C 811.43 410.68, 812.89 408.49, 814.94 405.08 C 817.00 401.66, 818.51 399.86, 819.97 397.00 C 821.42 394.14, 821.85 392.73, 822.23 390.79 C 822.60 388.86, 822.31 388.15, 821.82 387.32 C 821.33 386.49, 820.63 386.35, 819.77 386.63"
        style="stroke: black; fill: black;" />
    <path
        d="M 848.92,349.20 C 849.52 349.07, 849.50 348.79, 848.90 348.74 C 848.29 348.69, 846.48 348.80, 845.88 348.93 C 845.29 349.06, 845.30 349.34, 845.91 349.39 C 846.52 349.45, 848.33 349.33, 848.92 349.20"
        style="stroke: black; fill: black;" />
    <path
        d="M 876.92,394.58 C 876.65 393.69, 876.12 393.13, 874.80 392.49 C 873.47 391.85, 872.51 391.39, 870.29 391.39 C 868.06 391.39, 866.44 391.48, 863.67 392.49 C 860.90 393.51, 859.39 394.64, 856.45 396.47 C 853.51 398.30, 851.72 399.48, 848.98 401.64 C 846.24 403.80, 844.45 404.95, 842.75 407.27 C 841.04 409.59, 840.50 411.17, 840.47 413.24 C 840.44 415.30, 841.01 416.45, 842.61 417.59 C 844.22 418.74, 845.71 419.24, 848.49 418.94 C 851.27 418.64, 853.05 417.64, 856.51 416.08 C 859.98 414.53, 862.03 413.24, 865.83 411.18 C 869.63 409.13, 871.85 407.74, 875.51 405.82 C 879.18 403.91, 881.34 403.03, 884.16 401.61 C 886.98 400.19, 888.24 399.40, 889.60 398.72 C 890.97 398.04, 891.06 397.61, 890.99 398.22 C 890.93 398.82, 890.13 399.38, 889.26 401.76 C 888.39 404.13, 888.21 406.05, 886.65 410.10 C 885.08 414.15, 883.93 416.82, 881.43 422.02 C 878.92 427.21, 877.35 430.29, 874.14 436.07 C 870.93 441.86, 869.01 445.09, 865.37 450.94 C 861.74 456.80, 859.68 459.96, 855.96 465.35 C 852.24 470.75, 850.28 473.51, 846.78 477.93 C 843.27 482.35, 841.42 484.47, 838.44 487.44 C 835.47 490.41, 833.83 491.32, 831.91 492.80 C 829.99 494.28, 829.51 494.83, 828.84 494.86 C 828.18 494.89, 828.39 494.59, 828.58 492.95 C 828.77 491.31, 828.85 489.99, 829.78 486.65 C 830.71 483.31, 831.11 480.85, 833.22 476.26 C 835.33 471.66, 836.77 468.91, 840.33 463.66 C 843.89 458.41, 846.16 455.57, 851.02 450.00 C 855.87 444.42, 858.78 441.58, 864.59 435.79 C 870.41 430.00, 873.66 426.97, 880.07 421.07 C 886.48 415.17, 889.98 412.20, 896.65 406.29 C 903.32 400.38, 906.93 397.35, 913.41 391.53 C 919.88 385.70, 923.13 382.68, 929.05 377.16 C 934.96 371.65, 937.91 368.95, 942.98 363.95 C 948.06 358.94, 950.52 356.48, 954.41 352.14 C 958.31 347.80, 959.95 345.73, 962.45 342.25 C 964.96 338.77, 966.15 337.30, 966.94 334.73 C 967.74 332.15, 967.44 330.79, 966.42 329.38 C 965.40 327.97, 964.04 327.24, 961.85 327.66 C 959.65 328.08, 958.15 328.93, 955.44 331.47 C 952.73 334.01, 951.44 336.15, 948.29 340.35 C 945.14 344.55, 943.23 347.23, 939.70 352.48 C 936.16 357.72, 934.12 360.87, 930.62 366.56 C 927.12 372.26, 925.24 375.49, 922.21 380.94 C 919.18 386.40, 917.67 389.18, 915.47 393.83 C 913.27 398.47, 912.12 400.62, 911.21 404.17 C 910.29 407.73, 910.16 409.33, 910.90 411.62 C 911.63 413.90, 912.65 414.83, 914.86 415.60 C 917.07 416.38, 918.83 416.39, 921.94 415.50 C 925.06 414.62, 926.82 413.18, 930.42 411.18 C 934.02 409.17, 936.18 407.61, 939.94 405.47 C 943.69 403.32, 946.08 402.06, 949.20 400.45 C 952.32 398.85, 953.85 398.22, 955.54 397.44 C 957.24 396.66, 957.49 396.29, 957.68 396.57 C 957.86 396.84, 957.27 397.35, 956.48 398.81 C 955.68 400.27, 954.64 401.52, 953.70 403.86 C 952.77 406.19, 952.19 407.86, 951.80 410.48 C 951.41 413.11, 951.25 414.66, 951.76 417.00 C 952.27 419.34, 952.67 420.66, 954.33 422.19 C 955.99 423.71, 957.33 424.49, 960.06 424.62 C 962.79 424.75, 964.51 424.17, 967.99 422.82 C 971.47 421.46, 973.38 420.20, 977.46 417.85 C 981.55 415.51, 983.96 413.90, 988.41 411.08 C 992.87 408.27, 995.43 406.47, 999.74 403.78 C 1004.05 401.09, 1006.65 399.56, 1009.97 397.63 C 1013.28 395.71, 1014.87 394.97, 1016.31 394.15 C 1017.76 393.33, 1017.62 392.98, 1017.17 393.53 C 1016.73 394.09, 1015.56 394.79, 1014.10 396.91 C 1012.63 399.04, 1011.72 401.09, 1009.85 404.17 C 1007.98 407.25, 1006.48 409.29, 1004.75 412.32 C 1003.02 415.34, 1001.82 416.90, 1001.19 419.31 C 1000.55 421.72, 1000.64 423.02, 1001.57 424.36 C 1002.51 425.70, 1003.61 426.33, 1005.85 426.00 C 1008.09 425.68, 1009.59 424.74, 1012.78 422.74 C 1015.96 420.74, 1017.85 418.86, 1021.77 416.01 C 1025.70 413.16, 1028.13 411.33, 1032.39 408.50 C 1036.65 405.66, 1039.11 404.02, 1043.08 401.83 C 1047.05 399.64, 1049.30 398.82, 1052.25 397.56 C 1055.21 396.30, 1056.48 395.93, 1057.87 395.53 C 1059.26 395.13, 1059.38 394.97, 1059.20 395.54 C 1059.02 396.10, 1058.21 396.68, 1056.98 398.34 C 1055.75 400.01, 1054.70 401.45, 1053.04 403.88 C 1051.38 406.31, 1050.01 407.90, 1048.66 410.49 C 1047.32 413.07, 1046.56 414.62, 1046.30 416.82 C 1046.04 419.02, 1046.19 420.27, 1047.37 421.48 C 1048.55 422.70, 1049.80 423.28, 1052.19 422.89 C 1054.58 422.51, 1056.07 421.46, 1059.31 419.57 C 1062.55 417.68, 1064.43 416.05, 1068.38 413.46 C 1072.32 410.87, 1074.80 409.11, 1079.03 406.61 C 1083.26 404.11, 1085.72 402.71, 1089.52 400.94 C 1093.32 399.17, 1095.50 398.67, 1098.05 397.76 C 1100.60 396.85, 1101.46 396.38, 1102.28 396.38 C 1103.09 396.38, 1102.72 396.61, 1102.12 397.74 C 1101.51 398.88, 1100.50 399.84, 1099.26 402.05 C 1098.03 404.27, 1097.16 405.99, 1095.94 408.82 C 1094.72 411.66, 1093.72 413.37, 1093.18 416.23 C 1092.63 419.09, 1092.50 420.79, 1093.22 423.12 C 1093.93 425.45, 1094.69 426.60, 1096.76 427.88 C 1098.83 429.15, 1100.41 429.76, 1103.57 429.49 C 1106.73 429.23, 1108.60 428.20, 1112.55 426.55 C 1116.50 424.89, 1118.78 423.61, 1123.31 421.21 C 1127.83 418.81, 1130.43 417.24, 1135.17 414.55 C 1139.91 411.86, 1142.50 410.26, 1146.99 407.75 C 1151.47 405.23, 1153.81 403.88, 1157.59 401.96 C 1161.38 400.04, 1163.31 399.45, 1165.91 398.13 C 1168.50 396.80, 1169.42 396.25, 1170.57 395.32 C 1171.72 394.39, 1171.84 394.02, 1171.66 393.46 C 1171.49 392.89, 1170.79 392.47, 1169.69 392.50 C 1168.59 392.52, 1167.68 392.69, 1166.16 393.56 C 1164.65 394.44, 1163.86 395.17, 1162.13 396.87 C 1160.40 398.57, 1159.37 399.80, 1157.51 402.08 C 1155.66 404.35, 1154.60 405.72, 1152.87 408.25 C 1151.15 410.78, 1150.08 412.13, 1148.90 414.73 C 1147.71 417.32, 1147.16 418.77, 1146.95 421.21 C 1146.74 423.64, 1146.91 424.94, 1147.84 426.91 C 1148.77 428.87, 1149.63 429.88, 1151.60 431.03 C 1153.58 432.19, 1155.07 432.60, 1157.71 432.68 C 1160.34 432.76, 1161.96 432.41, 1164.78 431.46 C 1167.60 430.50, 1169.09 429.64, 1171.81 427.91 C 1174.54 426.17, 1176.10 425.06, 1178.42 422.78 C 1180.75 420.49, 1181.92 419.13, 1183.44 416.49 C 1184.97 413.85, 1185.47 412.29, 1186.04 409.58 C 1186.62 406.87, 1186.64 405.43, 1186.31 402.94 C 1185.99 400.45, 1185.41 399.14, 1184.42 397.11 C 1183.42 395.08, 1182.64 394.06, 1181.36 392.78 C 1180.07 391.51, 1179.10 390.96, 1177.98 390.73 C 1176.87 390.50, 1176.04 391.01, 1175.78 391.64 C 1175.53 392.27, 1175.65 393.13, 1176.72 393.87 C 1177.80 394.62, 1178.77 395.10, 1181.15 395.35 C 1183.53 395.60, 1185.22 395.34, 1188.61 395.12 C 1192.00 394.89, 1194.15 394.56, 1198.11 394.22 C 1202.08 393.89, 1204.37 393.67, 1208.44 393.42 C 1212.50 393.18, 1214.78 392.99, 1218.44 393.00 C 1222.09 393.00, 1223.98 393.18, 1226.72 393.44 C 1229.47 393.70, 1230.71 393.74, 1232.16 394.30 C 1233.61 394.86, 1233.92 395.12, 1233.96 396.24 C 1234.01 397.35, 1233.46 397.99, 1232.39 399.86 C 1231.32 401.73, 1230.47 403.12, 1228.61 405.60 C 1226.76 408.07, 1225.40 409.76, 1223.12 412.22 C 1220.85 414.68, 1219.10 415.85, 1217.25 417.89 C 1215.39 419.93, 1214.56 421.06, 1213.84 422.40 C 1213.11 423.74, 1213.12 424.26, 1213.60 424.58 C 1214.09 424.89, 1214.86 424.87, 1216.27 423.98 C 1217.68 423.09, 1218.76 422.15, 1220.66 420.13 C 1222.57 418.12, 1223.46 416.30, 1225.80 413.90 C 1228.15 411.50, 1229.72 410.14, 1232.39 408.16 C 1235.05 406.17, 1236.64 405.25, 1239.12 403.96 C 1241.61 402.68, 1242.69 402.24, 1244.79 401.73 C 1246.90 401.22, 1247.73 401.23, 1249.66 401.42 C 1251.59 401.62, 1252.37 402.04, 1254.43 402.70 C 1256.50 403.35, 1257.52 404.00, 1259.97 404.70 C 1262.43 405.41, 1263.79 405.89, 1266.70 406.23 C 1269.60 406.57, 1271.22 406.59, 1274.50 406.39 C 1277.78 406.20, 1279.54 405.99, 1283.10 405.24 C 1286.66 404.48, 1288.60 403.86, 1292.30 402.61 C 1296.01 401.37, 1298.01 400.57, 1301.62 399.03 C 1305.23 397.48, 1307.19 396.62, 1310.35 394.89 C 1313.50 393.15, 1315.32 392.30, 1317.40 390.35 C 1319.47 388.39, 1320.23 387.08, 1320.72 385.11 C 1321.21 383.14, 1321.05 381.94, 1319.85 380.52 C 1318.65 379.10, 1317.32 378.11, 1314.73 378.01 C 1312.14 377.91, 1310.28 378.56, 1306.89 380.03 C 1303.49 381.50, 1301.43 382.85, 1297.74 385.36 C 1294.04 387.88, 1291.88 389.46, 1288.43 392.59 C 1284.97 395.72, 1282.98 397.54, 1280.48 401.02 C 1277.97 404.50, 1276.63 406.44, 1275.90 409.98 C 1275.18 413.52, 1275.26 415.64, 1276.84 418.72 C 1278.43 421.81, 1280.08 423.30, 1283.84 425.39 C 1287.60 427.49, 1290.23 428.17, 1295.64 429.21 C 1301.04 430.25, 1304.37 430.39, 1310.88 430.60 C 1317.40 430.82, 1321.74 430.51, 1328.22 430.29 C 1334.70 430.06, 1338.30 429.89, 1343.29 429.48 C 1348.29 429.08, 1351.25 428.93, 1353.20 428.26 C 1355.15 427.59, 1355.04 426.48, 1353.03 426.14 C 1351.01 425.79, 1348.09 426.32, 1343.11 426.54 C 1338.13 426.75, 1334.55 427.04, 1328.13 427.23 C 1321.70 427.42, 1317.36 427.78, 1311.01 427.48 C 1304.65 427.18, 1301.39 426.88, 1296.36 425.75 C 1291.33 424.62, 1288.98 423.65, 1285.86 421.84 C 1282.74 420.03, 1281.89 418.88, 1280.77 416.70 C 1279.65 414.52, 1279.61 413.58, 1280.25 410.95 C 1280.89 408.31, 1281.76 406.57, 1283.96 403.54 C 1286.17 400.51, 1288.01 398.63, 1291.28 395.81 C 1294.55 392.99, 1296.72 391.49, 1300.30 389.44 C 1303.87 387.39, 1306.15 386.72, 1309.16 385.55 C 1312.16 384.39, 1313.57 384.19, 1315.33 383.63 C 1317.08 383.07, 1317.53 382.79, 1317.93 382.75 C 1318.33 382.70, 1318.15 382.73, 1317.31 383.39 C 1316.48 384.05, 1315.65 384.62, 1313.75 386.04 C 1311.84 387.46, 1310.59 388.76, 1307.79 390.49 C 1304.98 392.21, 1303.12 393.17, 1299.72 394.68 C 1296.33 396.19, 1294.33 396.94, 1290.82 398.04 C 1287.30 399.14, 1285.44 399.65, 1282.15 400.18 C 1278.85 400.72, 1277.27 400.74, 1274.34 400.72 C 1271.42 400.69, 1270.06 400.42, 1267.50 400.05 C 1264.94 399.67, 1263.85 399.41, 1261.53 398.85 C 1259.20 398.29, 1258.19 397.76, 1255.90 397.25 C 1253.60 396.73, 1252.49 396.40, 1250.04 396.28 C 1247.59 396.15, 1246.34 396.05, 1243.66 396.60 C 1240.98 397.16, 1239.53 397.61, 1236.64 399.03 C 1233.75 400.46, 1232.20 401.66, 1229.21 403.73 C 1226.22 405.80, 1224.53 407.07, 1221.70 409.37 C 1218.87 411.66, 1217.02 412.84, 1215.07 415.19 C 1213.11 417.55, 1212.42 419.14, 1211.94 421.13 C 1211.45 423.13, 1211.77 424.24, 1212.66 425.18 C 1213.55 426.13, 1214.57 426.39, 1216.38 425.86 C 1218.20 425.32, 1219.52 424.44, 1221.74 422.50 C 1223.96 420.56, 1225.12 418.82, 1227.47 416.17 C 1229.83 413.52, 1231.48 412.05, 1233.53 409.24 C 1235.59 406.44, 1236.88 404.91, 1237.77 402.14 C 1238.66 399.37, 1238.69 397.72, 1238.00 395.38 C 1237.31 393.03, 1236.46 391.86, 1234.33 390.42 C 1232.19 388.98, 1230.52 388.60, 1227.33 388.18 C 1224.14 387.75, 1222.18 388.16, 1218.36 388.29 C 1214.53 388.42, 1212.29 388.64, 1208.20 388.81 C 1204.11 388.99, 1201.82 389.17, 1197.90 389.15 C 1193.98 389.14, 1191.89 388.95, 1188.60 388.74 C 1185.32 388.52, 1183.81 388.04, 1181.48 388.07 C 1179.14 388.11, 1178.28 388.28, 1176.92 388.93 C 1175.56 389.57, 1175.08 390.22, 1174.69 391.31 C 1174.30 392.39, 1174.49 393.27, 1174.96 394.36 C 1175.43 395.45, 1176.16 395.69, 1177.04 396.76 C 1177.91 397.83, 1178.57 398.34, 1179.33 399.72 C 1180.09 401.11, 1180.59 401.97, 1180.85 403.69 C 1181.10 405.41, 1181.10 406.37, 1180.60 408.31 C 1180.09 410.26, 1179.59 411.39, 1178.31 413.41 C 1177.04 415.43, 1176.19 416.58, 1174.23 418.40 C 1172.27 420.21, 1170.85 421.15, 1168.52 422.50 C 1166.19 423.84, 1164.80 424.34, 1162.59 425.13 C 1160.38 425.92, 1159.23 426.17, 1157.45 426.44 C 1155.68 426.70, 1154.82 426.71, 1153.71 426.45 C 1152.60 426.18, 1152.21 425.97, 1151.89 425.11 C 1151.58 424.25, 1151.62 423.64, 1152.12 422.14 C 1152.62 420.64, 1153.18 419.60, 1154.40 417.60 C 1155.61 415.59, 1156.49 414.30, 1158.19 412.12 C 1159.89 409.95, 1161.08 408.73, 1162.91 406.73 C 1164.75 404.72, 1165.82 403.69, 1167.37 402.10 C 1168.93 400.50, 1169.69 400.09, 1170.70 398.76 C 1171.71 397.43, 1172.19 396.69, 1172.44 395.46 C 1172.69 394.23, 1172.62 393.33, 1171.95 392.60 C 1171.29 391.87, 1170.78 391.59, 1169.12 391.81 C 1167.47 392.03, 1166.35 392.35, 1163.67 393.70 C 1160.98 395.04, 1159.39 396.34, 1155.70 398.54 C 1152.02 400.74, 1149.70 402.11, 1145.25 404.70 C 1140.80 407.29, 1138.19 408.87, 1133.45 411.46 C 1128.71 414.06, 1126.06 415.56, 1121.54 417.66 C 1117.02 419.77, 1114.60 420.81, 1110.86 422.00 C 1107.12 423.20, 1105.30 423.20, 1102.84 423.63 C 1100.38 424.06, 1099.62 424.39, 1098.57 424.15 C 1097.53 423.90, 1097.46 423.63, 1097.62 422.42 C 1097.77 421.21, 1098.39 420.24, 1099.36 418.09 C 1100.32 415.95, 1101.18 414.42, 1102.43 411.72 C 1103.68 409.02, 1104.89 407.34, 1105.63 404.58 C 1106.36 401.81, 1106.58 400.12, 1106.12 397.91 C 1105.65 395.70, 1105.19 394.52, 1103.30 393.54 C 1101.42 392.57, 1099.81 392.29, 1096.68 393.02 C 1093.56 393.75, 1091.61 395.17, 1087.68 397.19 C 1083.75 399.21, 1081.34 400.66, 1077.01 403.13 C 1072.68 405.61, 1070.11 407.26, 1066.01 409.56 C 1061.91 411.85, 1059.64 412.92, 1056.51 414.62 C 1053.39 416.32, 1051.93 416.99, 1050.39 418.07 C 1048.85 419.15, 1048.73 419.86, 1048.81 420.01 C 1048.90 420.16, 1049.63 419.95, 1050.84 418.82 C 1052.05 417.69, 1053.17 416.60, 1054.85 414.38 C 1056.53 412.15, 1057.71 410.44, 1059.24 407.69 C 1060.76 404.94, 1061.92 403.23, 1062.46 400.62 C 1063.00 398.00, 1062.89 396.39, 1061.94 394.63 C 1061.00 392.87, 1060.02 392.08, 1057.73 391.82 C 1055.45 391.55, 1053.82 391.98, 1050.50 393.30 C 1047.19 394.62, 1045.18 396.04, 1041.14 398.43 C 1037.09 400.81, 1034.66 402.48, 1030.28 405.24 C 1025.90 408.01, 1023.35 409.71, 1019.25 412.26 C 1015.15 414.81, 1012.80 416.08, 1009.78 418.00 C 1006.76 419.92, 1005.45 420.73, 1004.15 421.86 C 1002.85 422.99, 1002.93 423.70, 1003.28 423.65 C 1003.63 423.60, 1004.59 423.24, 1005.92 421.61 C 1007.25 419.98, 1008.08 418.32, 1009.93 415.49 C 1011.79 412.65, 1013.26 410.62, 1015.20 407.42 C 1017.15 404.23, 1018.77 402.38, 1019.65 399.52 C 1020.53 396.66, 1020.43 394.89, 1019.59 393.12 C 1018.74 391.34, 1017.78 390.51, 1015.42 390.66 C 1013.07 390.81, 1011.35 391.87, 1007.81 393.86 C 1004.27 395.85, 1002.00 397.82, 997.72 400.62 C 993.45 403.42, 990.89 405.19, 986.43 407.86 C 981.97 410.53, 979.47 412.01, 975.41 413.98 C 971.35 415.95, 969.24 416.66, 966.13 417.71 C 963.02 418.75, 961.68 418.91, 959.86 419.21 C 958.04 419.51, 957.61 419.68, 957.05 419.19 C 956.48 418.70, 956.70 418.16, 957.03 416.75 C 957.36 415.35, 957.94 414.29, 958.71 412.16 C 959.47 410.03, 960.28 408.62, 960.87 406.10 C 961.45 403.58, 961.89 401.84, 961.63 399.54 C 961.37 397.25, 960.99 395.92, 959.55 394.62 C 958.12 393.33, 956.98 392.81, 954.46 393.07 C 951.94 393.34, 950.32 394.30, 946.95 395.95 C 943.57 397.59, 941.38 399.18, 937.59 401.30 C 933.79 403.42, 931.50 404.80, 927.98 406.55 C 924.46 408.29, 922.49 408.91, 919.99 410.02 C 917.50 411.13, 916.65 411.92, 915.50 412.10 C 914.34 412.27, 914.30 412.26, 914.23 410.88 C 914.16 409.51, 914.29 408.35, 915.13 405.20 C 915.97 402.05, 916.51 399.72, 918.43 395.15 C 920.36 390.58, 921.81 387.74, 924.74 382.33 C 927.66 376.91, 929.54 373.68, 933.06 368.08 C 936.58 362.48, 938.65 359.36, 942.33 354.32 C 946.01 349.29, 948.08 346.71, 951.44 342.92 C 954.80 339.13, 956.73 337.68, 959.13 335.37 C 961.54 333.07, 962.39 332.39, 963.46 331.40 C 964.53 330.40, 964.55 330.04, 964.47 330.41 C 964.39 330.77, 964.03 331.23, 963.05 333.21 C 962.07 335.19, 961.69 336.87, 959.55 340.30 C 957.41 343.73, 955.99 345.96, 952.35 350.36 C 948.71 354.76, 946.30 357.26, 941.35 362.32 C 936.40 367.38, 933.47 370.10, 927.62 375.64 C 921.76 381.19, 918.53 384.22, 912.08 390.05 C 905.62 395.89, 902.02 398.91, 895.34 404.81 C 888.66 410.71, 885.15 413.68, 878.69 419.56 C 872.23 425.44, 868.95 428.46, 863.04 434.22 C 857.13 439.97, 854.18 442.80, 849.15 448.34 C 844.12 453.88, 841.77 456.70, 837.89 461.93 C 834.01 467.16, 832.36 469.84, 829.77 474.50 C 827.18 479.17, 826.03 481.48, 824.93 485.27 C 823.84 489.06, 823.63 490.99, 824.29 493.45 C 824.96 495.90, 826.24 496.95, 828.26 497.56 C 830.28 498.16, 831.84 498.02, 834.39 496.48 C 836.95 494.94, 838.09 493.22, 841.04 489.87 C 843.98 486.52, 845.68 484.32, 849.11 479.72 C 852.53 475.12, 854.47 472.34, 858.17 466.86 C 861.88 461.39, 863.94 458.23, 867.63 452.36 C 871.33 446.49, 873.28 443.26, 876.66 437.51 C 880.04 431.77, 881.70 428.74, 884.53 423.63 C 887.37 418.52, 888.78 416.04, 890.83 411.95 C 892.87 407.87, 894.19 406.20, 894.74 403.20 C 895.29 400.21, 894.73 398.66, 893.56 396.98 C 892.39 395.30, 891.21 394.80, 888.89 394.80 C 886.57 394.79, 885.05 395.55, 881.95 396.94 C 878.84 398.33, 877.00 399.76, 873.34 401.75 C 869.68 403.73, 867.45 405.07, 863.65 406.87 C 859.85 408.66, 857.62 409.51, 854.33 410.73 C 851.03 411.94, 849.26 412.17, 847.16 412.94 C 845.06 413.72, 844.43 414.37, 843.80 414.62 C 843.18 414.87, 843.32 414.85, 844.02 414.19 C 844.73 413.53, 845.61 412.89, 847.33 411.32 C 849.06 409.76, 850.22 408.26, 852.67 406.37 C 855.12 404.49, 856.91 403.32, 859.59 401.89 C 862.28 400.46, 863.84 400.01, 866.10 399.21 C 868.35 398.42, 869.32 398.25, 870.87 397.91 C 872.42 397.58, 872.81 397.73, 873.85 397.53 C 874.90 397.34, 875.49 397.53, 876.10 396.94 C 876.72 396.35, 877.18 395.47, 876.92 394.58"
        style="stroke: black; fill: black;" /></svg>